# xmcd
#
# Track frame offsets: 
#        150
#        31979
#        59668
#        88768
#        118385
#        152161
#        179441
#        200726
#        221813
#        250416
#
# Disc length: 3719 seconds
#
# Revision: 1
# Processed by: cddbd v1.5.2PL0 Copyright (c) Steve Scherf et al.
# Submitted via: ExactAudioCopyFreeDBPlugin 1.0
#
DISCID=9e0e850a
DTITLE=Various Artist - Copenhagen Airport 2
DYEAR=2006
DGENRE=Jazz
TTITLE0=DALMINJO - And She Said(Phisics Deep Bossa Mix)
TTITLE1=PHYSICS - My Love(Solar House Fresh Vocal Mix)
TTITLE2=PHYSICS - Phused
TTITLE3=DALMINJO feat. Hilde Drange - Love Affair
TTITLE4=Hibiki Connection - CHA-KA-TOO(Sunset Mix)
TTITLE5=DALMINJO - Moon and Sun
TTITLE6=Jeff Bennett's Lounge Experience feat. Alexandra - Let's Come 
TTITLE6=Together
TTITLE7=Misery Boy - Some Nights
TTITLE8=Martinez - Night Dub
TTITLE9=Jeff Bennett's Lounge Experience - There Are Many Things
EXTD=YEAR: 2006
EXTT0=
EXTT1=
EXTT2=
EXTT3=
EXTT4=
EXTT5=
EXTT6=
EXTT7=
EXTT8=
EXTT9=
PLAYORDER=
